<svg width="20" height="20" viewBox="0 0 18 18" fill="none" xmlns="http://www.w3.org/2000/svg">
    <path fill-rule="evenodd" clip-rule="evenodd"
          d="M4 5.39995C4 5.01335 4.3134 4.69995 4.7 4.69995H14.3C14.6866 4.69995 15 5.01335 15 5.39995C15 5.78655 14.6866 6.09995 14.3 6.09995H4.7C4.3134 6.09995 4 5.78655 4 5.39995ZM4 8.99956C4 8.61296 4.3134 8.29956 4.7 8.29956H14.3C14.6866 8.29956 15 8.61296 15 8.99956C15 9.38616 14.6866 9.69956 14.3 9.69956H4.7C4.3134 9.69956 4 9.38616 4 8.99956ZM4.7 11.8992C4.3134 11.8992 4 12.2126 4 12.5992C4 12.9858 4.3134 13.2992 4.7 13.2992H14.3C14.6866 13.2992 15 12.9858 15 12.5992C15 12.2126 14.6866 11.8992 14.3 11.8992H4.7Z"
          fill="black" fill-opacity="0.45"/>
</svg>
