<svg width="10" height="10" viewBox="0 0 10 10" fill="none" xmlns="http://www.w3.org/2000/svg">
    <path fill-rule="evenodd" clip-rule="evenodd"
          d="M4.50012 1.25415C4.50012 0.978008 4.27626 0.75415 4.00012 0.75415C2.89555 0.75415 2.00012 1.64958 2.00012 2.75415V6.91469H0.946105C0.827661 6.91469 0.714069 6.96174 0.630316 7.04549C0.45591 7.2199 0.45591 7.50266 0.630316 7.67707L1.9732 9.01995C2.26387 9.31063 2.73515 9.31063 3.02583 9.01995L4.36871 7.67707C4.45246 7.59332 4.49951 7.47972 4.49951 7.36128C4.49951 7.11463 4.29956 6.91469 4.05292 6.91469H3.00012V2.75415L3.00685 2.63753C3.06461 2.14019 3.48728 1.75415 4.00012 1.75415C4.27626 1.75415 4.50012 1.53029 4.50012 1.25415ZM5.49938 8.73804C5.49938 9.01418 5.72324 9.23804 5.99938 9.23804C7.10395 9.23804 7.99938 8.34261 7.99938 7.23804V3.07764H9.05352C9.17197 3.07764 9.28556 3.03059 9.36931 2.94684C9.54372 2.77243 9.54372 2.48967 9.36931 2.31526L8.02643 0.972381C7.73576 0.681705 7.26448 0.681705 6.9738 0.972381L5.63092 2.31526C5.54717 2.39901 5.50012 2.51261 5.50012 2.63105C5.50012 2.8777 5.70007 3.07764 5.94671 3.07764H6.99938V7.23804L6.99265 7.35466C6.93489 7.852 6.51221 8.23804 5.99938 8.23804C5.72324 8.23804 5.49938 8.46189 5.49938 8.73804Z"
          fill="black" fill-opacity="0.85"/>
</svg>
